<?xml version="1.0" standalone="no"?><!DOCTYPE svg PUBLIC "-//W3C//DTD SVG 1.1//EN" "http://www.w3.org/Graphics/SVG/1.1/DTD/svg11.dtd"><svg class="icon" width="200px" height="200.00px" viewBox="0 0 1024 1024" version="1.1" xmlns="http://www.w3.org/2000/svg"><path d="M 452.152 669.355 c -61.0987 0 -122.083 -23.2107 -168.619 -69.7458 c -92.9565 -92.9565 -92.9565 -244.167 0 -337.123 c 92.9565 -92.9565 244.167 -92.9565 337.123 0 c 92.9565 92.9565 92.9565 244.167 0 337.123 c -46.3075 46.5351 -107.406 69.7458 -168.505 69.7458 Z m 0 -409.373 c -43.8045 0 -87.7227 16.7253 -121.059 50.0622 c -66.7875 66.7875 -66.7875 175.331 0 242.119 c 66.7875 66.7875 175.331 66.7875 242.119 0 c 66.7875 -66.7875 66.7875 -175.331 0 -242.119 c -33.3369 -33.4507 -77.1413 -50.0622 -121.059 -50.0622 Z M 270.563 818.517 L 64.739 612.693 c -14.2222 -14.2222 -14.2222 -37.4329 0 -51.6551 s 37.4329 -14.2222 51.6551 0 L 322.219 766.862 c 14.2222 14.2222 14.2222 37.4329 0 51.6551 c -14.1085 14.2222 -37.4329 14.2222 -51.6551 0 Z" fill="#5aa7f9" /><path d="M 13.653 869.603 c -14.1085 -14.1085 -14.1085 -37.3191 0 -51.5413 l 257.365 -257.365 c 14.1085 -14.1085 37.3191 -14.1085 51.5413 0 c 14.1085 14.1085 14.1085 37.3191 0 51.5413 L 65.195 869.603 c -14.1085 14.1085 -37.3191 14.1085 -51.5413 0 Z" fill="#5aa7f9" /><path d="M 1009.21 869.035 c -14.1085 14.1085 -37.3191 14.1085 -51.5413 0 L 700.416 611.669 c -14.1085 -14.1085 -14.1085 -37.3191 0 -51.5413 c 14.1085 -14.1085 37.3191 -14.1085 51.5413 0 L 1009.21 817.493 c 14.1085 14.2222 14.1085 37.3191 0 51.5413 Z" fill="#ff9dc6" /><path d="M 1019.79 623.957 v 219.477 c 0 20.0249 -16.384 36.4089 -36.4089 36.4089 s -36.4089 -16.384 -36.4089 -36.4089 V 623.957 c 0 -20.0249 16.384 -36.4089 36.4089 -36.4089 s 36.4089 16.384 36.4089 36.4089 Z" fill="#ff9dc6" /><path d="M 764.131 879.616 h 219.477 c 20.0249 0 36.4089 -16.384 36.4089 -36.4089 s -16.384 -36.4089 -36.4089 -36.4089 H 764.131 c -20.0249 0 -36.4089 16.384 -36.4089 36.4089 s 16.384 36.4089 36.4089 36.4089 Z" fill="#ff9dc6" /><path d="M 740.238 262.941 c -45.056 -45.056 -104.903 -69.8595 -168.619 -69.8595 c -63.7155 0 -123.563 24.8035 -168.619 69.8595 c -90.5671 90.5671 -92.8427 236.43 -6.94045 329.842 c 37.3191 12.8569 78.1653 12.5155 115.257 -1.13778 c -22.1867 -8.30578 -42.8942 -21.3902 -60.7573 -39.1395 c -66.7875 -66.7875 -66.7875 -175.331 0 -242.119 c 32.3129 -32.3129 75.3209 -50.176 121.059 -50.176 s 88.7467 17.8631 121.059 50.176 c 32.3129 32.3129 50.176 75.3209 50.176 121.059 s -17.8631 88.7467 -50.176 121.059 c -19.2285 19.2285 -41.984 32.8818 -66.1049 41.0738 c -1.93422 2.048 -3.86845 4.096 -5.80267 6.03022 c -31.4027 31.4027 -69.4045 52.224 -109.682 62.3502 c 19.7973 5.12 40.1635 7.73689 60.5298 7.73689 c 61.0987 0 122.083 -23.2107 168.619 -69.7458 c 45.056 -45.056 69.8595 -104.903 69.8595 -168.619 s -24.8035 -123.335 -69.8595 -168.391 Z M 590.848 601.544 h -0.227555 h 0.227555 Z M 550.344 601.315 h 0.341333 h -0.341333 Z M 594.489 601.088 h -0.341333 h 0.341333 Z M 598.13 600.519 h -0.227555 h 0.227555 Z" fill="#ff9dc6" /></svg>