<?xml version="1.0" standalone="no"?><!DOCTYPE svg PUBLIC "-//W3C//DTD SVG 1.1//EN" "http://www.w3.org/Graphics/SVG/1.1/DTD/svg11.dtd"><svg class="icon" width="200px" height="200.00px" viewBox="0 0 1024 1024" version="1.1" xmlns="http://www.w3.org/2000/svg"><path d="M951 491.8c12 12.5 12 31.9 0 44.4L764.8 729.9c-11.5 11.5-30.4 12-42.4 0-12-12.5-12-32.4 0-44.9l134.8-139.8H498.8c-17.5 0-31.4-14-31.4-31.4s14-31.4 31.4-31.4h355.4L722.4 343.5c-12-12.5-12-31.9 0-44.4 10.5-11.5 29-12.5 40.4-2 0.5 0.5 1.5 1 2 2L951 491.8zM620.6 787.3c17 0.5 30.9 14.5 30.4 31.4v35.4c1 57.4-44.9 104.8-102.3 105.8H166.3C108.9 959 63 911.6 64 854.2V169.8C63 112.4 108.9 65 166.3 64h382.9c57.4 1 103.3 48.4 102.3 105.8v35.4c0.5 17-13.5 31.4-30.4 31.4-17-0.5-30.9-14.5-30.4-31.4v-35.4c0.5-23-18-41.9-41.4-42.4h-383c-23 0.5-41.4 19.5-41.4 42.4v684.3c-0.5 23 18 41.9 41.4 42.4h382.9c23-0.5 41.4-19.5 41.4-42.4v-35.4c0-8.5 3-16.5 9-22 5-5.9 13-9.4 21-9.4z" /></svg>