<?xml version="1.0" standalone="no"?><!DOCTYPE svg PUBLIC "-//W3C//DTD SVG 1.1//EN" "http://www.w3.org/Graphics/SVG/1.1/DTD/svg11.dtd"><svg class="icon" width="200px" height="200.00px" viewBox="0 0 1024 1024" version="1.1" xmlns="http://www.w3.org/2000/svg"><path d="M832 128H192c-70.656 0-128 57.344-128 128v384c0 70.656 57.344 128 128 128h127.808v65.408c0 24 13.44 45.568 34.944 56.192 8.896 4.288 18.368 6.464 27.776 6.464 13.504 0 26.88-4.416 38.08-12.992L570.048 768H832c70.656 0 128-57.344 128-128V256c0-70.656-57.344-128-128-128z m64 512c0 35.392-28.608 64-64 64l-272.576-0.064c-7.04 0-13.888 2.304-19.456 6.592L383.744 833.472v-97.536c0-17.664-14.336-31.936-31.936-31.936H192c-35.392 0-64-28.608-64-64V256c0-35.392 28.608-64 64-64h640c35.392 0 64 28.608 64 64v384zM320 384c-35.392 0-64 28.608-64 64 0 35.392 28.608 64 64 64 35.392 0 64-28.608 64-64 0-35.392-28.608-64-64-64z m192 0c-35.392 0-64 28.608-64 64 0 35.392 28.608 64 64 64 35.392 0 64-28.608 64-64 0-35.392-28.608-64-64-64z m192 0c-35.392 0-64 28.608-64 64 0 35.392 28.608 64 64 64 35.392 0 64-28.608 64-64 0-35.392-28.608-64-64-64z" /></svg>